<svg
  width="179"
  height="44"
  viewBox="0 0 179 44"
  fill="none"
  xmlns="http://www.w3.org/2000/svg"
>
<path
    d="M76.0645 19.6974H72.332V32.9045H70.0625V19.6974H67.4102V18.6037L70.0625 17.8517V16.8537C70.0625 15.5959 70.2493 14.5751 70.623 13.7912C70.9967 12.9982 71.5391 12.4149 72.25 12.0412C72.9609 11.6675 73.8268 11.4807 74.8477 11.4807C75.4219 11.4807 75.946 11.5308 76.4199 11.631C76.903 11.7313 77.3268 11.8452 77.6914 11.9728L77.1035 13.7639C76.7936 13.6636 76.4427 13.5724 76.0508 13.4904C75.668 13.3993 75.276 13.3537 74.875 13.3537C74.0091 13.3537 73.3665 13.6363 72.9473 14.2014C72.5371 14.7573 72.332 15.6323 72.332 16.8264V17.9201H76.0645V19.6974ZM91.7461 25.3849C91.7461 26.6154 91.5866 27.7137 91.2676 28.6799C90.9486 29.646 90.4883 30.4618 89.8867 31.1271C89.2852 31.7925 88.556 32.3029 87.6992 32.6584C86.8516 33.0047 85.89 33.1779 84.8145 33.1779C83.8118 33.1779 82.8913 33.0047 82.0527 32.6584C81.2233 32.3029 80.5033 31.7925 79.8926 31.1271C79.291 30.4618 78.8216 29.646 78.4844 28.6799C78.1562 27.7137 77.9922 26.6154 77.9922 25.3849C77.9922 23.7443 78.2702 22.3498 78.8262 21.2014C79.3822 20.0438 80.1751 19.1642 81.2051 18.5627C82.2441 17.952 83.4792 17.6467 84.9102 17.6467C86.2773 17.6467 87.4714 17.952 88.4922 18.5627C89.5221 19.1734 90.3197 20.0575 90.8848 21.215C91.459 22.3635 91.7461 23.7534 91.7461 25.3849ZM80.3438 25.3849C80.3438 26.5881 80.5033 27.6317 80.8223 28.5158C81.1413 29.3999 81.6335 30.0835 82.2988 30.5666C82.9642 31.0497 83.821 31.2912 84.8691 31.2912C85.9082 31.2912 86.7604 31.0497 87.4258 30.5666C88.1003 30.0835 88.597 29.3999 88.916 28.5158C89.235 27.6317 89.3945 26.5881 89.3945 25.3849C89.3945 24.1909 89.235 23.161 88.916 22.2951C88.597 21.4201 88.1048 20.7456 87.4395 20.2717C86.7741 19.7977 85.9128 19.5607 84.8555 19.5607C83.2969 19.5607 82.153 20.0757 81.4238 21.1057C80.7038 22.1356 80.3438 23.562 80.3438 25.3849ZM108.59 25.3849C108.59 26.6154 108.43 27.7137 108.111 28.6799C107.792 29.646 107.332 30.4618 106.73 31.1271C106.129 31.7925 105.4 32.3029 104.543 32.6584C103.695 33.0047 102.734 33.1779 101.658 33.1779C100.656 33.1779 99.735 33.0047 98.8965 32.6584C98.0671 32.3029 97.347 31.7925 96.7363 31.1271C96.1348 30.4618 95.6654 29.646 95.3281 28.6799C95 27.7137 94.8359 26.6154 94.8359 25.3849C94.8359 23.7443 95.1139 22.3498 95.6699 21.2014C96.2259 20.0438 97.0189 19.1642 98.0488 18.5627C99.0879 17.952 100.323 17.6467 101.754 17.6467C103.121 17.6467 104.315 17.952 105.336 18.5627C106.366 19.1734 107.163 20.0575 107.729 21.215C108.303 22.3635 108.59 23.7534 108.59 25.3849ZM97.1875 25.3849C97.1875 26.5881 97.347 27.6317 97.666 28.5158C97.985 29.3999 98.4772 30.0835 99.1426 30.5666C99.8079 31.0497 100.665 31.2912 101.713 31.2912C102.752 31.2912 103.604 31.0497 104.27 30.5666C104.944 30.0835 105.441 29.3999 105.76 28.5158C106.079 27.6317 106.238 26.5881 106.238 25.3849C106.238 24.1909 106.079 23.161 105.76 22.2951C105.441 21.4201 104.949 20.7456 104.283 20.2717C103.618 19.7977 102.757 19.5607 101.699 19.5607C100.141 19.5607 98.9967 20.0757 98.2676 21.1057C97.5475 22.1356 97.1875 23.562 97.1875 25.3849ZM117.846 33.1779C115.95 33.1779 114.446 32.5308 113.334 31.2365C112.231 29.9422 111.68 28.0191 111.68 25.467C111.68 22.8876 112.245 20.9416 113.375 19.6291C114.505 18.3075 116.009 17.6467 117.887 17.6467C118.68 17.6467 119.372 17.7515 119.965 17.9611C120.557 18.1708 121.068 18.4533 121.496 18.8088C121.924 19.1551 122.285 19.5516 122.576 19.9982H122.74C122.704 19.7157 122.667 19.3283 122.631 18.8361C122.594 18.3439 122.576 17.9429 122.576 17.633V11.631H124.846V32.9045H123.014L122.672 30.7717H122.576C122.294 31.2183 121.934 31.6239 121.496 31.9885C121.068 32.353 120.553 32.6447 119.951 32.8635C119.359 33.0731 118.657 33.1779 117.846 33.1779ZM118.201 31.2912C119.805 31.2912 120.94 30.8355 121.605 29.924C122.271 29.0126 122.604 27.659 122.604 25.8635V25.4533C122.604 23.5484 122.285 22.0855 121.646 21.0646C121.018 20.0438 119.869 19.5334 118.201 19.5334C116.807 19.5334 115.763 20.0711 115.07 21.1467C114.378 22.2131 114.031 23.6714 114.031 25.5217C114.031 27.3628 114.373 28.7847 115.057 29.7873C115.749 30.7899 116.798 31.2912 118.201 31.2912Z"
    fill="#212429"
  />
<path
    d="M139.066 20.7502H135.457V32.9045H131.287V20.7502H128.99V18.7404L131.287 17.6193V16.4982C131.287 15.1948 131.506 14.1831 131.943 13.4631C132.39 12.7339 133.014 12.2235 133.816 11.9318C134.628 11.631 135.585 11.4807 136.688 11.4807C137.499 11.4807 138.237 11.549 138.902 11.6857C139.568 11.8133 140.11 11.9592 140.529 12.1232L139.463 15.1857C139.144 15.0855 138.798 14.9943 138.424 14.9123C138.05 14.8303 137.622 14.7892 137.139 14.7892C136.555 14.7892 136.127 14.967 135.854 15.3224C135.589 15.6688 135.457 16.1154 135.457 16.6623V17.6193H139.066V20.7502ZM147.734 17.3049C149.785 17.3049 151.357 17.7515 152.451 18.6447C153.545 19.5379 154.092 20.896 154.092 22.7189V32.9045H151.18L150.373 30.8264H150.264C149.826 31.3732 149.38 31.8198 148.924 32.1662C148.468 32.5126 147.944 32.7678 147.352 32.9318C146.759 33.0959 146.039 33.1779 145.191 33.1779C144.289 33.1779 143.478 33.0047 142.758 32.6584C142.047 32.312 141.486 31.7834 141.076 31.0724C140.666 30.3524 140.461 29.4409 140.461 28.3381C140.461 26.7157 141.031 25.5217 142.17 24.756C143.309 23.9813 145.018 23.5529 147.297 23.4709L149.949 23.3889V22.7189C149.949 21.9168 149.74 21.329 149.32 20.9553C148.901 20.5816 148.318 20.3947 147.57 20.3947C146.832 20.3947 146.107 20.4995 145.396 20.7092C144.686 20.9188 143.975 21.1831 143.264 21.5021L141.883 18.6857C142.694 18.2573 143.601 17.9201 144.604 17.674C145.615 17.4279 146.659 17.3049 147.734 17.3049ZM149.949 25.8224L148.336 25.8771C146.987 25.9136 146.048 26.1551 145.52 26.6017C145 27.0484 144.74 27.6363 144.74 28.3654C144.74 29.0034 144.927 29.4592 145.301 29.7326C145.674 29.9969 146.162 30.1291 146.764 30.1291C147.657 30.1291 148.409 29.8648 149.02 29.3361C149.639 28.8075 149.949 28.0555 149.949 27.0803V25.8224ZM162.568 17.6193V32.9045H158.398V17.6193H162.568ZM160.49 11.631C161.11 11.631 161.643 11.7769 162.09 12.0685C162.536 12.3511 162.76 12.8843 162.76 13.6682C162.76 14.4429 162.536 14.9807 162.09 15.2814C161.643 15.5731 161.11 15.7189 160.49 15.7189C159.861 15.7189 159.324 15.5731 158.877 15.2814C158.439 14.9807 158.221 14.4429 158.221 13.6682C158.221 12.8843 158.439 12.3511 158.877 12.0685C159.324 11.7769 159.861 11.631 160.49 11.631ZM175.488 17.3322C175.698 17.3322 175.939 17.3459 176.213 17.3732C176.495 17.3915 176.723 17.4188 176.896 17.4553L176.582 21.3654C176.445 21.3198 176.249 21.2879 175.994 21.2697C175.748 21.2424 175.534 21.2287 175.352 21.2287C174.814 21.2287 174.29 21.2971 173.779 21.4338C173.278 21.5705 172.827 21.7938 172.426 22.1037C172.025 22.4045 171.706 22.8055 171.469 23.3068C171.241 23.799 171.127 24.4051 171.127 25.1252V32.9045H166.957V17.6193H170.115L170.73 20.1896H170.936C171.236 19.6701 171.61 19.1961 172.057 18.7678C172.512 18.3303 173.027 17.9839 173.602 17.7287C174.185 17.4644 174.814 17.3322 175.488 17.3322Z"
    fill="#212429"
  />
<path
    fill-rule="evenodd"
    clip-rule="evenodd"
    d="M58.7496 18.4294C56.5607 32.2533 44.523 42.8264 29.9996 42.8264C15.4762 42.8264 3.43891 32.2533 1.25 18.4294H11.5444C13.1103 27.149 20.7765 33.7686 30 33.7686C39.223 33.7686 46.8893 27.149 48.4552 18.4294H58.7496Z"
    fill="url(#paint0_linear_176_1474)"
  />
<path
    fill-rule="evenodd"
    clip-rule="evenodd"
    d="M42.0215 21.1767C41.9355 19.6334 41.2592 17.5812 40.7336 16.4379C38.8537 12.3478 35.4739 9.52516 31.0669 8.98946C31.0578 8.85262 31.171 8.58944 31.1603 8.28505C31.1512 8.02965 31.0793 7.80417 30.9752 7.62224C30.3486 6.52364 28.9066 7.00724 28.8354 8.2489C28.8166 8.57933 28.9381 8.83824 28.9274 8.98985C24.253 9.54654 20.7796 12.6931 18.9812 17.0878C18.3183 18.7093 18.007 20.3129 17.8761 22.3732C17.5792 22.5198 17.4526 22.4743 17.2534 22.8028C17.1063 23.0458 17.0398 23.4205 17.1668 23.7525C17.4341 24.4523 17.9587 24.338 18.725 24.338C21.5862 24.3384 24.5314 24.3115 27.3812 24.3384C27.8097 24.3422 27.7134 24.282 28.3259 23.6172L29.368 22.4514C29.3132 22.3363 27.5025 20.1317 27.4125 20.0602C27.1918 20.1224 26.9746 20.4186 26.4151 20.4027C25.4576 20.3747 24.6412 19.3647 24.0962 18.649C23.8662 18.3474 22.4124 16.0884 22.2435 15.6052C22.1894 15.4516 22.1578 15.2421 22.2327 15.0854C22.2549 15.0395 22.2532 15.0469 22.2743 15.0205C22.5726 15.237 25.146 18.4329 25.3569 18.5138L25.5711 18.2727C25.5181 18.1332 24.1634 16.6077 23.9676 16.3827C23.6898 16.0635 23.4323 15.7688 23.1582 15.4454C22.9933 15.251 22.4282 14.6986 22.7411 14.168L23.5384 15.0772C23.8091 15.3933 24.0619 15.6798 24.3316 15.9966C24.5123 16.2089 25.8445 17.7856 25.9483 17.8276L26.1632 17.5901C26.0802 17.3363 23.1294 14.1477 23.0206 13.8733C23.4578 13.544 23.9313 14.1345 24.0965 14.3227L25.7162 16.1964C25.8717 16.3788 26.3879 17.0225 26.5397 17.1263C26.636 17.0649 26.715 16.9813 26.7579 16.8651C26.6374 16.6645 24.4834 14.2142 24.1036 13.7742C23.9884 13.6408 23.7876 13.4659 23.7238 13.2843C24.1365 13.1592 24.3504 13.3322 24.6527 13.5705C25.4563 14.2033 26.1551 14.7359 26.8738 15.4329C27.6267 16.1638 28.7087 17.4412 28.2984 18.754C28.2336 18.9616 28.1274 19.0977 28.0865 19.2967C28.4327 19.6734 29.9436 21.4165 30.1827 21.5526C30.8446 20.9376 31.972 19.5401 32.563 18.9752C32.5382 18.7886 32.4021 18.5697 32.3454 18.3653C32.1536 17.671 32.3659 16.9895 32.6752 16.4355C33.5695 14.8335 37.1309 11.851 37.77 14.6978C37.8371 15.6157 37.6988 16.2031 37.3861 16.9148C37.1218 17.5159 36.7423 18.1277 36.4106 18.5239C36.0244 18.9849 35.6721 19.4199 35.1149 19.7609C34.3943 20.2025 33.9207 20.1166 33.2652 19.715C33.2263 19.7348 31.0384 22.2974 31.0028 22.4879L32.5482 24.1833C32.7742 24.4282 32.83 24.35 33.3898 24.35H41.3922C42.0934 24.35 42.6015 24.4017 42.8389 23.7304C42.9531 23.4069 42.8937 23.0403 42.7415 22.8001C42.5296 22.4642 42.4245 22.5272 42.1276 22.3686L42.0205 21.1771L42.0215 21.1767ZM30.1837 23.452C30.0722 23.534 29.4902 24.2318 29.4724 24.3508L30.9155 24.343C30.8762 24.2486 30.2989 23.5337 30.1837 23.452Z"
    fill="url(#paint1_linear_176_1474)"
  />
<path
    d="M53.5403 15.9298C57.1077 15.9298 59.9996 12.5821 59.9996 8.45262C59.9996 4.3231 57.1077 0.975464 53.5403 0.975464C49.973 0.975464 47.0811 4.3231 47.0811 8.45262C47.0811 12.5821 49.973 15.9298 53.5403 15.9298Z"
    fill="url(#paint2_linear_176_1474)"
  />
<path
    d="M6.45925 15.9298C10.0266 15.9298 12.9185 12.5821 12.9185 8.45262C12.9185 4.3231 10.0266 0.975464 6.45925 0.975464C2.89191 0.975464 0 4.3231 0 8.45262C0 12.5821 2.89191 15.9298 6.45925 15.9298Z"
    fill="url(#paint3_linear_176_1474)"
  />
<defs>
<linearGradient
      id="paint0_linear_176_1474"
      x1="62.9314"
      y1="30.8279"
      x2="-2.40906"
      y2="30.8279"
      gradientUnits="userSpaceOnUse"
    >
<stop stop-color="#FDAD13" />
<stop offset="1" stop-color="#F84108" />
</linearGradient>
<linearGradient
      id="paint1_linear_176_1474"
      x1="44.7748"
      y1="15.8281"
      x2="15.4579"
      y2="15.8281"
      gradientUnits="userSpaceOnUse"
    >
<stop stop-color="#FDAD13" />
<stop offset="1" stop-color="#F84108" />
</linearGradient>
<linearGradient
      id="paint2_linear_176_1474"
      x1="60.9391"
      y1="8.5752"
      x2="46.259"
      y2="8.5752"
      gradientUnits="userSpaceOnUse"
    >
<stop stop-color="#FDAD13" />
<stop offset="1" stop-color="#F84108" />
</linearGradient>
<linearGradient
      id="paint3_linear_176_1474"
      x1="13.858"
      y1="8.5752"
      x2="-0.822087"
      y2="8.5752"
      gradientUnits="userSpaceOnUse"
    >
<stop stop-color="#FDAD13" />
<stop offset="1" stop-color="#F84108" />
</linearGradient>
</defs>
</svg>
