<svg
  width="50"
  height="208"
  viewBox="0 0 50 208"
  fill="none"
  xmlns="http://www.w3.org/2000/svg"
>
<path
    d="M25 47.9175C38.8071 47.9175 50 37.1908 50 23.9587C50 10.7267 38.8071 0 25 0C11.1929 0 0 10.7267 0 23.9587C0 37.1908 11.1929 47.9175 25 47.9175Z"
    fill="#F3EEE4"
  />
<path
    opacity="0.7"
    d="M22.699 31.0438L22.6786 25.0091H20V22.4228H22.6786V20.6986C22.6786 18.3717 24.171 17.2502 26.3209 17.2502C27.3507 17.2502 28.2358 17.3243 28.4937 17.3574V19.7892L27.0026 19.7898C25.8334 19.7898 25.607 20.3263 25.607 21.1135V22.4228H28.9286L28.0357 25.0091H25.607V31.0438H22.699Z"
    fill="#121212"
  />
<path
    d="M25 127.835C38.8071 127.835 50 117.108 50 103.876C50 90.6442 38.8071 79.9175 25 79.9175C11.1929 79.9175 0 90.6442 0 103.876C0 117.108 11.1929 127.835 25 127.835Z"
    fill="#F3EEE4"
  />
<path
    d="M32.942 100.342C32.9319 99.6182 32.7902 98.9011 32.5232 98.2233C32.2917 97.6515 31.938 97.1323 31.4848 96.6987C31.0317 96.2651 30.489 95.9268 29.8914 95.7052C29.192 95.4541 28.4532 95.3182 27.7064 95.3036C26.7448 95.2625 26.4399 95.251 23.999 95.251C21.5581 95.251 21.2452 95.251 20.2906 95.3036C19.5441 95.3184 18.8057 95.4542 18.1066 95.7052C17.5089 95.9266 16.9661 96.2649 16.513 96.6985C16.0598 97.1321 15.7062 97.6514 15.4748 98.2233C15.2117 98.8919 15.0701 99.5986 15.056 100.313C15.013 101.234 15 101.525 15 103.861C15 106.196 15 106.495 15.056 107.409C15.071 108.124 15.2119 108.83 15.4748 109.5C15.7066 110.072 16.0604 110.591 16.5138 111.024C16.9671 111.458 17.5099 111.796 18.1076 112.017C18.8047 112.279 19.5434 112.424 20.2916 112.448C21.2542 112.489 21.5591 112.501 24 112.501C26.4409 112.501 26.7538 112.501 27.7084 112.448C28.4552 112.434 29.1941 112.298 29.8934 112.047C30.4908 111.825 31.0334 111.487 31.4865 111.053C31.9396 110.62 32.2934 110.101 32.5252 109.529C32.7881 108.86 32.929 108.154 32.944 107.437C32.987 106.518 33 106.226 33 103.89C32.998 101.554 32.998 101.258 32.942 100.342ZM23.993 108.277C21.4401 108.277 19.3721 106.299 19.3721 103.856C19.3721 101.414 21.4401 99.4349 23.993 99.4349C25.2186 99.4349 26.3939 99.9007 27.2605 100.73C28.1271 101.559 28.614 102.683 28.614 103.856C28.614 105.029 28.1271 106.153 27.2605 106.982C26.3939 107.811 25.2186 108.277 23.993 108.277ZM28.7979 100.302C28.6563 100.302 28.5162 100.276 28.3854 100.224C28.2546 100.172 28.1357 100.096 28.0357 100.001C27.9356 99.9049 27.8562 99.7912 27.8021 99.6661C27.748 99.5409 27.7202 99.4068 27.7203 99.2714C27.7203 99.1361 27.7482 99.0021 27.8023 98.8771C27.8565 98.752 27.9358 98.6384 28.0358 98.5428C28.1358 98.4471 28.2545 98.3712 28.3852 98.3194C28.5159 98.2676 28.6559 98.2409 28.7974 98.2409C28.9388 98.2409 29.0789 98.2676 29.2095 98.3194C29.3402 98.3712 29.4589 98.4471 29.5589 98.5428C29.6589 98.6384 29.7383 98.752 29.7924 98.8771C29.8465 99.0021 29.8744 99.1361 29.8744 99.2714C29.8744 99.8414 29.3926 100.302 28.7979 100.302Z"
    fill="#565451"
  />
<path
    d="M23.9954 106.02C25.2393 106.02 26.2477 105.053 26.2477 103.861C26.2477 102.669 25.2393 101.703 23.9954 101.703C22.7515 101.703 21.7432 102.669 21.7432 103.861C21.7432 105.053 22.7515 106.02 23.9954 106.02Z"
    fill="#565451"
  />
<path
    d="M25 207.752C38.8071 207.752 50 197.026 50 183.794C50 170.562 38.8071 159.835 25 159.835C11.1929 159.835 0 170.562 0 183.794C0 197.026 11.1929 207.752 25 207.752Z"
    fill="#F3EEE4"
  />
<path
    opacity="0.7"
    d="M31.2857 179.337C30.75 179.595 30.2143 179.682 29.5893 179.768C30.2143 179.423 30.6607 178.906 30.8393 178.216C30.3036 178.561 29.6786 178.733 28.9643 178.906C28.4286 178.389 27.625 178.044 26.8214 178.044C25.3036 178.044 23.9643 179.337 23.9643 180.889C23.9643 181.147 23.9643 181.32 24.0536 181.492C21.6429 181.406 19.4107 180.285 17.9821 178.561C17.7143 178.992 17.625 179.423 17.625 180.027C17.625 180.975 18.1607 181.837 18.9643 182.354C18.5179 182.354 18.0714 182.182 17.625 182.009C17.625 183.389 18.6071 184.509 19.9464 184.768C19.6786 184.854 19.4107 184.854 19.1429 184.854C18.9643 184.854 18.7857 184.854 18.6071 184.768C18.9643 185.889 20.0357 186.751 21.375 186.751C20.3929 187.527 19.1429 187.958 17.7143 187.958C17.4464 187.958 17.2679 187.958 17 187.958C18.3393 188.734 19.8571 189.251 21.4643 189.251C26.8214 189.251 29.7679 184.94 29.7679 181.233C29.7679 181.147 29.7679 180.975 29.7679 180.889C30.3929 180.458 30.9286 179.94 31.2857 179.337Z"
    fill="#121212"
  />
</svg>
